<?xml version="1.0" encoding="UTF-8" standalone="no"?>
<!-- Created with Inkscape (http://www.inkscape.org/) -->

<svg
   xmlns:dc="http://purl.org/dc/elements/1.1/"
   xmlns:cc="http://creativecommons.org/ns#"
   xmlns:rdf="http://www.w3.org/1999/02/22-rdf-syntax-ns#"
   xmlns:svg="http://www.w3.org/2000/svg"
   xmlns="http://www.w3.org/2000/svg"
   xmlns:sodipodi="http://sodipodi.sourceforge.net/DTD/sodipodi-0.dtd"
   xmlns:inkscape="http://www.inkscape.org/namespaces/inkscape"
   width="1920"
   height="1080"
   viewBox="0 0 507.99999 285.75001"
   version="1.1"
   id="svg8"
   inkscape:version="0.92.3 (2405546, 2018-03-11)"
   sodipodi:docname="2box comms.svg"
   inkscape:export-filename="C:\Users\Savestate\Production Interface IO\themes\SmashGBG\_resources\overlays\NFP-Commentary-1080.png"
   inkscape:export-xdpi="96"
   inkscape:export-ydpi="96">
  <defs
     id="defs2" />
  <sodipodi:namedview
     id="base"
     pagecolor="#ffffff"
     bordercolor="#666666"
     borderopacity="1.0"
     inkscape:pageopacity="0.0"
     inkscape:pageshadow="2"
     inkscape:zoom="0.7"
     inkscape:cx="827.26591"
     inkscape:cy="461.02769"
     inkscape:document-units="px"
     inkscape:current-layer="layer1"
     showgrid="false"
     units="px"
     inkscape:snap-bbox="true"
     inkscape:snap-page="true"
     inkscape:window-width="1858"
     inkscape:window-height="1057"
     inkscape:window-x="1974"
     inkscape:window-y="-8"
     inkscape:window-maximized="1"
     inkscape:snap-nodes="true" />
  <metadata
     id="metadata5">
    <rdf:RDF>
      <cc:Work
         rdf:about="">
        <dc:format>image/svg+xml</dc:format>
        <dc:type
           rdf:resource="http://purl.org/dc/dcmitype/StillImage" />
        <dc:title />
      </cc:Work>
    </rdf:RDF>
  </metadata>
  <g
     inkscape:label="Layer 1"
     inkscape:groupmode="layer"
     id="layer1"
     transform="translate(0,-11.249992)">
    <path
       style="opacity:1;fill:#f4f7f9;fill-opacity:1;stroke:none;stroke-width:0.21723406;stroke-miterlimit:4;stroke-dasharray:none;stroke-opacity:1"
       d="M 85.758864,241.44705 H 244.79132 v 16.35917 H 85.758864 Z"
       id="rect845"
       inkscape:connector-curvature="0"
       sodipodi:nodetypes="ccccc" />
    <path
       style="opacity:1;fill:#2f618e;fill-opacity:1;stroke:none;stroke-width:0.21166667;stroke-miterlimit:4;stroke-dasharray:none;stroke-opacity:1"
       d="m 85.295025,240.99564 v 17.17931 h 0.79375 158.413075 0.79375 V 240.99564 H 244.50185 86.088775 Z m 0.79375,0.79375 H 244.50185 V 257.3812 L 86.088775,255.26453 Z"
       id="rect862"
       inkscape:connector-curvature="0"
       sodipodi:nodetypes="cccccccccccccc" />
    <path
       style="opacity:1;fill:#f4f7f9;fill-opacity:1;stroke:none;stroke-width:0.21723406;stroke-miterlimit:4;stroke-dasharray:none;stroke-opacity:1"
       d="M 422.24114,241.44705 H 261.62118 v 16.35917 h 160.61996 z"
       id="rect845-1"
       inkscape:connector-curvature="0"
       sodipodi:nodetypes="ccccc" />
    <path
       style="opacity:1;fill:#2f618e;fill-opacity:1;stroke:none;stroke-width:0.21166667;stroke-miterlimit:4;stroke-dasharray:none;stroke-opacity:1"
       d="m 422.70498,240.99564 v 17.17931 h -0.79375 -160.00058 -0.79375 v -17.17931 h 0.79375 160.00058 z m -0.79375,2.91042 -160.00058,-2.11667 v 15.59181 h 160.00058 z"
       id="rect862-1"
       inkscape:connector-curvature="0"
       sodipodi:nodetypes="cccccccccccccc" />
    <path
       style="opacity:1;fill:#2f618e;fill-opacity:1;stroke:none;stroke-width:0.12808567;stroke-miterlimit:4;stroke-dasharray:none;stroke-opacity:1"
       d="m 152.22975,261.27221 h 81.09464 v 10.70569 h -81.09464 z"
       id="rect845-2"
       inkscape:connector-curvature="0"
       sodipodi:nodetypes="ccccc" />
    <path
       style="opacity:1;fill:#2f618e;fill-opacity:1;stroke:none;stroke-width:0.21166667;stroke-miterlimit:4;stroke-dasharray:none;stroke-opacity:1"
       d="m 151.76591,260.8208 v 11.56665 h 0.79375 80.39723 0.79375 V 260.8208 h -0.79375 -80.39723 z m 0.79375,0.79375 h 80.39723 v 9.97915 h -80.39723 z"
       id="rect862-9"
       inkscape:connector-curvature="0"
       sodipodi:nodetypes="cccccccccccccc" />
    <path
       style="opacity:1;fill:#2f618e;fill-opacity:1;stroke:none;stroke-width:0.11845047;stroke-miterlimit:4;stroke-dasharray:none;stroke-opacity:1"
       d="m 355.77026,261.27221 h -74.95034 v 10.7465 h 74.95034 z"
       id="rect845-2-9"
       inkscape:connector-curvature="0"
       sodipodi:nodetypes="ccccc" />
    <path
       style="opacity:1;fill:#2f618e;fill-opacity:1;stroke:none;stroke-width:0.19527671;stroke-miterlimit:4;stroke-dasharray:none;stroke-opacity:1"
       d="m 356.0284,260.8208 v 11.56665 h -0.67558 -74.28357 -0.67558 V 260.8208 h 0.67558 74.28357 z m -0.67558,0.79375 h -74.28357 v 9.97915 h 74.28357 z"
       id="rect862-9-8"
       inkscape:connector-curvature="0"
       sodipodi:nodetypes="cccccccccccccc" />
    <g
       id="g1283"
       transform="matrix(0.51029989,0,0,0.51029989,127.87972,182.98876)">
      <path
         style="fill:#f4f7f9;fill-opacity:1;stroke-width:1.33333325"
         d="M 246.78516,288.92773 233.57227,295 l -47.85743,40.71484 -35,42.85743 L 140,402.14258 c 0,0 -1.42887,25.00081 42.14258,53.57226 20.71427,-15.71429 34.71235,-26.42933 33.78515,23.92774 7.64425,-3.92863 4.78711,-1.60742 4.78711,-1.60742 l -20.70507,26.68359 -19.69727,2.01953 -120.208984,145.46289 c 0,0 4.546629,49.49603 40.912104,34.34375 C 137.38114,671.39264 235.36523,529.4668 235.36523,529.4668 l 20.20313,-25.25391 35.35547,23.73828 -5.55664,25.25391 25.2539,26.26367 -55.55664,-5.05078 37.87891,35.35547 -37.375,20.70898 67.17578,1.51563 20.70703,19.1914 c 0,0 25.25386,53.5393 114.65235,12.12305 89.39852,-41.41625 69.19531,-99.5 69.19531,-99.5 l -14.64649,-29.80078 29.29493,-25.25391 -28.78907,-8.58593 9.59571,-41.41602 -45.45703,31.31445 2.52539,-22.72851 -22.22266,10.60742 -55.55859,-62.125 c 0,0 -29.29376,23.73941 -32.32422,13.13281 -3.03047,-10.6066 2.01861,-24.24385 -38.89258,-55.55859 -18.18274,-14.64718 -33.83948,-19.69727 -37.375,-19.69727 -3.53552,0 2.26534,-26.91518 -3.0918,-35.84375 -5.35714,-8.92857 -43.57226,-28.92969 -43.57226,-28.92969 z"
         transform="matrix(0.26458334,0,0,0.26458334,166.77619,8.0427576)"
         id="path1287"
         inkscape:connector-curvature="0" />
      <path
         style="fill:#2f618e;fill-opacity:1;stroke-width:0.35277775"
         d="m 187.65814,191.02934 c -2.59291,-0.89605 -4.15229,-2.22268 -5.25009,-4.46651 -0.85157,-1.74054 -0.93684,-2.24378 -0.7925,-4.67724 0.18974,-3.19909 0.69623,-4.31647 3.21561,-7.09399 1.00526,-1.10826 2.70088,-3.03439 3.76803,-4.28028 1.06715,-1.24589 4.3239,-4.88991 7.23722,-8.09781 2.91332,-3.2079 6.32645,-7.02049 7.58472,-8.47243 1.25828,-1.45194 4.30036,-4.8809 6.76018,-7.61992 4.08324,-4.54671 4.62044,-5.01863 6.17361,-5.42353 0.93567,-0.24392 1.97246,-0.5145 2.304,-0.6013 0.33153,-0.0868 1.64795,-1.32562 2.92539,-2.75293 l 2.32262,-2.59512 -1.09481,-1.55322 c -0.74008,-1.04996 -1.18201,-2.19582 -1.36395,-3.53651 -0.49289,-3.63214 -1.63304,-3.95595 -4.65973,-1.32341 -1.1154,0.97014 -2.21352,1.76389 -2.44028,1.76389 -0.22676,0 -2.52466,-1.82078 -5.10645,-4.04618 -5.71688,-4.92772 -6.3646,-5.97463 -6.33631,-10.24132 0.0297,-4.47862 1.44949,-7.43554 6.06526,-12.63175 1.31048,-1.47527 4.28769,-4.870815 6.61603,-7.545648 6.41114,-7.36525 7.83156,-8.685973 11.16545,-10.38182 2.67121,-1.358763 3.19217,-1.499826 5.59149,-1.514057 1.92602,-0.01142 3.05109,0.174378 4.13546,0.682958 1.96024,0.919374 9.62287,8.109746 9.62287,9.029801 0,0.381035 -0.3175,1.315142 -0.70555,2.075794 -0.97448,1.910125 -0.9394,4.029538 0.0785,4.742492 0.43123,0.30205 1.24625,0.54917 1.81116,0.54917 2.38903,0 3.70846,0.78871 8.20254,4.90316 2.45865,2.25097 5.20216,4.66844 6.09668,5.37216 2.27606,1.79056 3.19872,3.19537 3.62986,5.52672 0.79705,4.30995 1.30993,4.49955 4.49176,1.66046 1.19598,-1.06715 2.41827,-1.94027 2.71621,-1.94027 0.66128,0 4.59935,3.39514 8.49072,7.32013 1.58702,1.60073 3.17952,2.91042 3.53889,2.91042 0.47474,0 1.00396,0.7717 1.93541,2.82222 1.0276,2.26217 1.43336,2.82222 2.04469,2.82222 0.49549,0 2.17467,-1.37974 4.79319,-3.93845 2.21679,-2.16615 4.13727,-3.83171 4.26773,-3.70124 0.13047,0.13047 0.0319,1.22809 -0.21899,2.43915 -0.72193,3.4844 -0.82411,4.74522 -0.40554,5.00391 0.21244,0.1313 2.29642,-0.96137 4.63108,-2.42815 2.33465,-1.46679 4.49563,-2.66688 4.80219,-2.66688 0.64045,0 0.55261,0.98253 -0.60426,6.75819 -0.81853,4.08659 -0.83701,4.66874 -0.16584,5.22577 0.28409,0.23577 1.8319,0.48119 3.43958,0.54538 1.60768,0.0642 3.12149,0.12884 3.36403,0.14368 1.03253,0.0632 0.1989,1.30419 -3.8208,5.68797 -4.61096,5.02859 -4.68414,5.19825 -3.17924,7.37027 1.25933,1.81757 2.94939,6.54548 3.12638,8.74596 0.51047,6.34644 -4.28324,13.61814 -12.44232,18.87409 -6.51004,4.19366 -11.71507,6.05518 -21.38373,7.64764 -3.93237,0.64768 -6.47831,0.37012 -11.67251,-1.27254 -3.81723,-1.2072 -5.86237,-2.91604 -7.57012,-6.32528 -0.73421,-1.46574 -1.73707,-2.95133 -2.22858,-3.30131 -0.53973,-0.38433 -1.87079,-0.72788 -3.36102,-0.86749 -1.35705,-0.12714 -3.49924,-0.39447 -4.76042,-0.59408 -1.26118,-0.19961 -4.99181,-0.46956 -8.29028,-0.59989 -3.6575,-0.14452 -5.97944,-0.37461 -5.95165,-0.58976 0.0386,-0.29904 3.83258,-2.0583 9.64354,-4.47171 0.78287,-0.32514 1.42339,-0.81806 1.42339,-1.09539 0,-0.27731 -2.97925,-2.72856 -6.62055,-5.44721 -3.6413,-2.71865 -6.83573,-5.20229 -7.09875,-5.5192 -0.428,-0.51572 -0.33891,-0.57621 0.84872,-0.57621 0.72981,0 3.24956,0.32984 5.59945,0.73297 7.96795,1.36694 10.61576,1.70016 10.94275,1.3771 0.19047,-0.18817 -1.06039,-1.623 -3.0868,-3.54079 -1.87387,-1.77343 -3.40704,-3.45862 -3.40704,-3.74488 0,-0.28626 0.635,-1.09052 1.41111,-1.78724 0.98838,-0.88729 1.41111,-1.55356 1.41111,-2.22405 0,-1.23886 -0.67653,-1.77004 -2.73768,-2.14948 -0.91962,-0.1693 -2.46574,-0.71709 -3.43581,-1.2173 l -1.76378,-0.90949 -2.36926,2.58644 c -1.7997,1.96467 -2.37264,2.84087 -2.38333,3.64478 -0.0225,1.69346 -0.67448,3.60105 -1.6112,4.71428 -0.47761,0.56761 -0.86838,1.12398 -0.86838,1.23639 0,0.1124 -0.67469,0.88521 -1.49931,1.71735 -0.82462,0.83214 -4.6743,5.06119 -8.55486,9.39789 -10.0599,11.24241 -11.03184,12.34281 -13.51789,15.30457 -1.22595,1.46055 -3.4528,3.84647 -4.94856,5.30207 -2.19598,2.137 -3.08661,2.75553 -4.62601,3.21268 -2.41587,0.71744 -3.61827,0.69972 -5.89442,-0.0869 z m 5.84477,-3.03296 c 0.52201,-0.26994 4.03753,-3.952 7.81227,-8.18235 3.77475,-4.23036 8.29399,-9.2834 10.04276,-11.22898 14.76907,-16.43122 15.36022,-17.17668 14.65936,-18.48624 -0.20705,-0.38687 -0.37578,-0.91227 -0.37497,-1.16756 0.002,-0.65965 7.39936,-8.90945 8.10106,-9.03472 0.32005,-0.0571 1.30754,0.53483 2.19442,1.31549 2.04503,1.80011 2.9647,2.13978 5.79343,2.13978 1.985,0 2.4056,0.11947 3.19312,0.907 0.78534,0.78534 0.87589,1.10148 0.67511,2.3571 -0.12754,0.79756 -0.63444,2.45635 -1.12646,3.68619 -0.49201,1.22985 -0.84272,2.37569 -0.77934,2.54633 0.239,0.64345 6.52033,6.10095 7.7741,6.75447 2.58407,1.34695 6.10478,0.46047 9.5226,-2.39769 1.70768,-1.42806 8.67947,-9.04436 15.72185,-17.17526 3.62615,-4.18663 5.18389,-9.02741 3.82589,-11.88919 -0.31175,-0.65696 -2.25147,-2.68673 -4.31049,-4.51061 l -3.74367,-3.31613 -2.38638,1.28894 c -1.31251,0.70891 -3.08126,1.3831 -3.93058,1.49819 -2.16686,0.29362 -3.08855,-0.7221 -3.47375,-3.82815 -0.15508,-1.25045 -0.45575,-2.59827 -0.66817,-2.99518 -0.33617,-0.62814 -6.71463,-6.53272 -11.78693,-10.91122 -1.64652,-1.42131 -1.7521,-1.45704 -4.66464,-1.57826 -2.51892,-0.10483 -3.10227,-0.24632 -3.7703,-0.91447 -1.04295,-1.04313 -0.96666,-2.85913 0.24763,-5.894361 0.50973,-1.274139 0.87571,-2.528334 0.81327,-2.787099 -0.0624,-0.258765 -1.72975,-1.915309 -3.70512,-3.681208 -4.15241,-3.712067 -5.44398,-4.271335 -8.28836,-3.588979 -2.84429,0.682335 -5.62158,2.852236 -10.30802,8.05368 -12.14112,13.475337 -13.53849,15.259027 -14.50568,18.515897 -1.1902,4.00786 -0.53743,5.50743 4.22583,9.70767 2.00778,1.77046 3.76226,3.21901 3.89885,3.21901 0.13659,0 1.38174,-0.55552 2.767,-1.2345 3.71329,-1.82005 4.5484,-1.90529 5.8559,-0.59779 0.81988,0.81988 1.07293,1.39042 1.07443,2.42252 0.004,2.3669 0.61989,3.76358 2.46184,5.57783 0.97324,0.9586 1.76953,1.88376 1.76953,2.05589 0,0.17214 -1.77489,2.29066 -3.94421,4.70783 l -3.94421,4.39484 -1.3348,-0.22551 c -0.87301,-0.14749 -1.5653,-0.063 -2.00106,0.24432 -0.66899,0.47177 -3.93194,4.0409 -13.51989,14.78848 -15.75761,17.66346 -18.0859,20.35207 -18.52236,21.38878 -0.62578,1.48644 -0.60827,3.76305 0.0386,5.01391 0.60807,1.17588 2.40182,2.75689 3.89323,3.43148 1.18866,0.53765 3.26441,0.36633 4.72733,-0.39017 z m 86.87887,-3.87717 c 13.18857,-3.41887 24.3711,-12.65244 25.23329,-20.83546 0.15395,-1.46118 -0.034,-2.33297 -1.09535,-5.07988 -2.50588,-6.48573 -3.8178,-8.0197 -8.24109,-9.63599 -2.6971,-0.98553 -10.29983,-1.09215 -14.01695,-0.19657 -8.94997,2.15633 -16.25446,6.0047 -21.54864,11.3529 -3.61025,3.64708 -5.18257,6.61062 -5.38226,10.14461 -0.11958,2.11641 0.0175,2.78314 1.1655,5.66785 1.7451,4.38522 2.7096,5.96498 4.31185,7.06246 3.11427,2.13315 5.96478,2.75292 11.75216,2.55518 3.16699,-0.1082 5.37122,-0.39992 7.82149,-1.0351 z m -14.73519,-6.54691 c -5.70024,-0.83581 -8.9613,-3.62243 -8.9613,-7.65757 0,-3.93275 4.1043,-9.49527 9.88337,-13.39485 7.62064,-5.14222 15.95411,-7.74894 23.79505,-7.44312 7.0899,0.27653 10.67339,2.60004 11.05204,7.16608 0.31172,3.75894 -3.03526,8.86703 -8.43166,12.86822 -5.72218,4.24274 -13.3475,7.39638 -20.07102,8.30088 -4.02986,0.54213 -4.58005,0.55427 -7.26648,0.16036 z m -0.44021,-5.29272 c 0.73946,-3.35255 0.76282,-3.88056 0.17165,-3.88056 -0.63439,0 -5.77478,2.38192 -6.02936,2.79385 -0.26529,0.42924 1.44948,2.43263 2.78964,3.25917 1.89959,1.17156 2.41024,0.80998 3.06807,-2.17246 z m 19.59495,-0.17519 c 5.7659,-2.66401 11.67659,-7.51652 13.49335,-11.07764 1.0752,-2.10758 1.32953,-4.87388 0.58115,-6.3211 -0.31948,-0.61781 -0.72069,-1.12329 -0.89157,-1.12329 -0.53776,0 -19.22677,8.5177 -19.72362,8.98924 -0.39376,0.3737 -0.19903,1.31572 1.15916,5.60773 1.16559,3.68337 1.78675,5.15858 2.17208,5.15858 0.29681,0 1.74106,-0.55508 3.20945,-1.23352 z m -21.41326,-5.9361 3.35139,-1.4869 0.68953,-3.41948 c 0.37923,-1.88072 0.58054,-3.52846 0.44736,-3.66165 -0.74452,-0.74451 -6.34309,4.67043 -7.79868,7.54287 -1.56253,3.08352 -1.425,3.12611 3.3104,1.02516 z m 23.34018,-10.07875 c 4.90261,-2.11355 8.96989,-4.011 9.03841,-4.21656 0.0685,-0.20556 -0.79014,-0.63965 -1.90814,-0.96466 -1.60675,-0.4671 -2.92392,-0.55134 -6.28561,-0.40201 -5.76346,0.25601 -12.54317,2.08171 -12.54317,3.37773 0,1.22834 1.83549,6.04832 2.30325,6.04832 0.26479,0 4.49265,-1.72927 9.39526,-3.84282 z m -36.92524,17.94889 c -0.12163,-0.1968 -0.85098,-0.67914 -1.62078,-1.07186 -0.79972,-0.40799 -1.29933,-0.87634 -1.16562,-1.09268 0.1287,-0.20825 1.12531,-0.77281 2.21468,-1.25458 l 1.98067,-0.87595 -1.40593,-1.11314 c -0.77327,-0.61223 -1.9548,-1.60964 -2.62563,-2.21646 l -1.2197,-1.10333 1.51593,-0.77337 c 0.83376,-0.42535 1.44496,-0.84434 1.35822,-0.93108 -0.17895,-0.17894 -8.22465,-1.53843 -9.17108,-1.54964 -0.33955,-0.004 -0.61736,0.12345 -0.61736,0.28328 0,0.15983 1.88702,1.66971 4.19337,3.35529 2.30636,1.68558 4.37207,3.28 4.59047,3.54316 0.54008,0.65075 0.0872,0.98359 -3.31211,2.43418 -3.35504,1.4317 -3.73518,2.00622 -1.35599,2.04935 0.9378,0.017 2.49884,0.15453 3.46898,0.30564 2.63233,0.41 3.42008,0.41278 3.17188,0.0112 z m 56.43819,-29.359 c 0.68425,-1.01606 1.24409,-1.94816 1.24409,-2.07134 0,-0.12318 -1.27022,-0.2975 -2.8227,-0.38737 -1.55249,-0.0899 -2.93356,-0.27425 -3.06904,-0.40973 -0.13548,-0.13548 0.13455,-2.14086 0.60007,-4.45641 0.46553,-2.31554 0.75047,-4.30601 0.63322,-4.42326 -0.11725,-0.11726 -2.43984,1.22689 -5.1613,2.98698 -4.36178,2.82097 -6.05525,3.66224 -6.05525,3.00809 0,-0.10565 0.25886,-1.22262 0.57525,-2.48216 0.31639,-1.25954 0.4708,-2.39453 0.34313,-2.52219 -0.12766,-0.12767 -1.23983,0.76664 -2.47148,1.98734 -1.40937,1.39685 -2.4702,2.17404 -2.86219,2.09691 -0.37814,-0.0744 -0.9009,-0.85494 -1.33061,-1.98674 -0.38929,-1.02531 -0.86578,-1.81153 -1.05888,-1.74717 -0.39282,0.13094 -3.51669,6.98944 -3.28777,7.21835 0.0802,0.0802 0.59793,-0.43656 1.15045,-1.14841 0.55253,-0.71185 1.28105,-1.63561 1.61894,-2.05281 l 0.61434,-0.75854 1.01223,1.20553 1.01223,1.20553 1.11998,-0.7975 c 1.31431,-0.93586 2.15327,-0.75227 2.15327,0.47122 0,0.4797 0.16654,0.97512 0.37008,1.10092 0.20355,0.12579 2.20034,-0.51206 4.43731,-1.41745 2.23697,-0.9054 4.28515,-1.56255 4.55151,-1.46034 0.32224,0.12365 0.51959,0.92675 0.58978,2.4 l 0.10549,2.21415 2.11666,0.71397 c 2.04259,0.68898 2.1205,0.76027 2.22616,2.03689 0.0602,0.7276 0.17506,1.32291 0.25521,1.32291 0.0802,0 0.70556,-0.83131 1.38982,-1.84737 z"
         id="path1285"
         inkscape:connector-curvature="0" />
    </g>
  </g>
</svg>
